<mxfile host="Electron" modified="2023-11-09T13:26:55.395Z" agent="Mozilla/5.0 (Windows NT 10.0; Win64; x64) AppleWebKit/537.36 (KHTML, like Gecko) draw.io/21.6.8 Chrome/114.0.5735.289 Electron/25.5.0 Safari/537.36" etag="GLN6m572LWSaF-PocWvX" version="21.6.8" type="device">
  <diagram name="第 1 页" id="kU-osgONPoRnrk1FiQGm">
    <mxGraphModel dx="1418" dy="838" grid="0" gridSize="10" guides="1" tooltips="1" connect="1" arrows="1" fold="1" page="1" pageScale="1" pageWidth="1600" pageHeight="1200" math="0" shadow="0">
      <root>
        <mxCell id="0" />
        <mxCell id="1" parent="0" />
        <mxCell id="QBqWffG0uu94AfR12DbI-13" value="" style="rounded=0;whiteSpace=wrap;html=1;fillColor=#99FFFF;movable=1;resizable=1;rotatable=1;deletable=1;editable=1;locked=0;connectable=1;fillStyle=solid;opacity=50;" parent="1" vertex="1">
          <mxGeometry x="520" y="200" width="600" height="360" as="geometry" />
        </mxCell>
        <mxCell id="QBqWffG0uu94AfR12DbI-65" value="" style="verticalLabelPosition=bottom;verticalAlign=top;html=1;shape=mxgraph.basic.polygon;polyCoords=[[0.55,0.63],[0.55,0.02],[0.88,0.02],[0.88,1],[0.75,1],[0.25,1],[0,1],[0,0.63]];polyline=0;fontFamily=Helvetica;fontSize=12;fontColor=default;fillColor=#FFFF33;gradientColor=none;opacity=50;container=0;" parent="1" vertex="1">
          <mxGeometry x="570" y="230" width="560" height="540" as="geometry" />
        </mxCell>
        <mxCell id="QBqWffG0uu94AfR12DbI-43" value="" style="rounded=0;whiteSpace=wrap;html=1;fillColor=#FF3399;movable=1;resizable=1;rotatable=1;deletable=1;editable=1;locked=0;connectable=1;opacity=50;" parent="1" vertex="1">
          <mxGeometry x="893.5" y="280" width="386.5" height="200" as="geometry" />
        </mxCell>
        <mxCell id="QBqWffG0uu94AfR12DbI-3" value="" style="rounded=0;whiteSpace=wrap;html=1;fillColor=#99FFCC;movable=1;resizable=1;rotatable=1;deletable=1;editable=1;locked=0;connectable=1;gradientColor=none;fillStyle=solid;opacity=50;" parent="1" vertex="1">
          <mxGeometry x="280" y="280" width="440" height="240" as="geometry" />
        </mxCell>
        <mxCell id="QBqWffG0uu94AfR12DbI-4" value="entry" style="text;html=1;align=center;verticalAlign=middle;resizable=0;points=[];autosize=1;strokeColor=none;fillColor=none;fontSize=15;movable=0;rotatable=0;deletable=0;editable=0;locked=1;connectable=0;" parent="1" vertex="1">
          <mxGeometry x="280" y="280" width="60" height="30" as="geometry" />
        </mxCell>
        <mxCell id="QBqWffG0uu94AfR12DbI-7" value="" style="group;movable=1;resizable=1;rotatable=1;deletable=1;editable=1;locked=0;connectable=1;" parent="1" vertex="1" connectable="0">
          <mxGeometry x="350" y="334.5" width="107" height="140" as="geometry" />
        </mxCell>
        <mxCell id="QBqWffG0uu94AfR12DbI-5" value="" style="verticalLabelPosition=bottom;sketch=0;aspect=fixed;html=1;verticalAlign=top;strokeColor=none;align=center;outlineConnect=0;shape=mxgraph.citrix.site;movable=1;resizable=1;rotatable=1;deletable=1;editable=1;locked=0;connectable=1;" parent="QBqWffG0uu94AfR12DbI-7" vertex="1">
          <mxGeometry width="107" height="101" as="geometry" />
        </mxCell>
        <mxCell id="QBqWffG0uu94AfR12DbI-6" value="web-shiro" style="text;html=1;align=center;verticalAlign=middle;resizable=1;points=[];autosize=1;strokeColor=none;fillColor=none;fontSize=15;movable=1;rotatable=1;deletable=1;editable=1;locked=0;connectable=1;" parent="QBqWffG0uu94AfR12DbI-7" vertex="1">
          <mxGeometry x="8.5" y="110" width="90" height="30" as="geometry" />
        </mxCell>
        <mxCell id="QBqWffG0uu94AfR12DbI-14" value="&lt;font style=&quot;font-size: 15px;&quot;&gt;sub-1&lt;/font&gt;" style="text;html=1;align=center;verticalAlign=middle;resizable=0;points=[];autosize=1;strokeColor=none;fillColor=none;movable=0;rotatable=0;deletable=0;editable=0;locked=1;connectable=0;" parent="1" vertex="1">
          <mxGeometry x="520.0044444444444" y="200" width="60" height="30" as="geometry" />
        </mxCell>
        <mxCell id="QBqWffG0uu94AfR12DbI-18" value="" style="group;movable=0;resizable=0;rotatable=0;deletable=0;editable=0;locked=1;connectable=0;" parent="1" vertex="1" connectable="0">
          <mxGeometry x="570" y="334.5" width="110" height="131.00333333333333" as="geometry" />
        </mxCell>
        <mxCell id="QBqWffG0uu94AfR12DbI-8" value="" style="verticalLabelPosition=bottom;sketch=0;aspect=fixed;html=1;verticalAlign=top;strokeColor=none;align=center;outlineConnect=0;shape=mxgraph.citrix.site;movable=0;resizable=0;rotatable=0;deletable=0;editable=0;locked=1;connectable=0;" parent="QBqWffG0uu94AfR12DbI-18" vertex="1">
          <mxGeometry x="3.283333333333303" width="103.43333333333332" height="97.63333333333334" as="geometry" />
        </mxCell>
        <mxCell id="QBqWffG0uu94AfR12DbI-9" value="web-thinkphp" style="text;html=1;align=center;verticalAlign=middle;resizable=0;points=[];autosize=1;strokeColor=none;fillColor=none;fontSize=15;movable=0;rotatable=0;deletable=0;editable=0;locked=1;connectable=0;" parent="QBqWffG0uu94AfR12DbI-18" vertex="1">
          <mxGeometry y="101.00333333333333" width="110" height="30" as="geometry" />
        </mxCell>
        <mxCell id="QBqWffG0uu94AfR12DbI-20" value="&lt;font style=&quot;font-size: 15px;&quot;&gt;192.168.100.0/24&lt;/font&gt;" style="text;html=1;align=center;verticalAlign=middle;resizable=0;points=[];autosize=1;strokeColor=none;fillColor=none;movable=0;rotatable=0;deletable=0;editable=0;locked=1;connectable=0;" parent="1" vertex="1">
          <mxGeometry x="280" y="490" width="140" height="30" as="geometry" />
        </mxCell>
        <mxCell id="QBqWffG0uu94AfR12DbI-24" value="&lt;font style=&quot;font-size: 15px;&quot;&gt;10.85.101.0/24&lt;/font&gt;" style="text;html=1;align=center;verticalAlign=middle;resizable=0;points=[];autosize=1;strokeColor=none;fillColor=none;movable=0;rotatable=0;deletable=0;editable=0;locked=1;connectable=0;" parent="1" vertex="1">
          <mxGeometry x="520" y="530" width="120" height="30" as="geometry" />
        </mxCell>
        <mxCell id="QBqWffG0uu94AfR12DbI-27" value="" style="group;movable=0;resizable=0;rotatable=0;deletable=0;editable=0;locked=1;connectable=0;" parent="1" vertex="1" connectable="0">
          <mxGeometry x="338.5" y="120" width="130" height="132.5" as="geometry" />
        </mxCell>
        <mxCell id="QBqWffG0uu94AfR12DbI-25" value="" style="verticalLabelPosition=bottom;sketch=0;aspect=fixed;html=1;verticalAlign=top;strokeColor=none;align=center;outlineConnect=0;shape=mxgraph.citrix.desktop;movable=0;resizable=0;rotatable=0;deletable=0;editable=0;locked=1;connectable=0;" parent="QBqWffG0uu94AfR12DbI-27" vertex="1">
          <mxGeometry x="20.5" width="89" height="98" as="geometry" />
        </mxCell>
        <mxCell id="QBqWffG0uu94AfR12DbI-26" value="&lt;font style=&quot;font-size: 15px;&quot;&gt;Attack Machine&lt;/font&gt;" style="text;html=1;align=center;verticalAlign=middle;resizable=0;points=[];autosize=1;strokeColor=none;fillColor=none;movable=0;rotatable=0;deletable=0;editable=0;locked=1;connectable=0;" parent="QBqWffG0uu94AfR12DbI-27" vertex="1">
          <mxGeometry y="102.5" width="130" height="30" as="geometry" />
        </mxCell>
        <mxCell id="QBqWffG0uu94AfR12DbI-31" style="edgeStyle=orthogonalEdgeStyle;rounded=0;orthogonalLoop=1;jettySize=auto;html=1;movable=0;resizable=0;rotatable=0;deletable=0;editable=0;locked=1;connectable=0;" parent="1" source="QBqWffG0uu94AfR12DbI-26" target="QBqWffG0uu94AfR12DbI-5" edge="1">
          <mxGeometry relative="1" as="geometry" />
        </mxCell>
        <mxCell id="QBqWffG0uu94AfR12DbI-61" value="&lt;font style=&quot;font-size: 15px;&quot;&gt;172.56.102.0/24&lt;/font&gt;" style="text;html=1;align=center;verticalAlign=middle;resizable=0;points=[];autosize=1;strokeColor=none;fillColor=none;" parent="1" vertex="1">
          <mxGeometry x="570" y="740" width="130" height="30" as="geometry" />
        </mxCell>
        <mxCell id="QBqWffG0uu94AfR12DbI-60" value="&lt;font style=&quot;font-size: 15px;&quot;&gt;sub-2&lt;/font&gt;" style="text;html=1;align=center;verticalAlign=middle;resizable=0;points=[];autosize=1;strokeColor=none;fillColor=none;" parent="1" vertex="1">
          <mxGeometry x="880" y="240" width="60" height="30" as="geometry" />
        </mxCell>
        <mxCell id="QBqWffG0uu94AfR12DbI-69" value="" style="group" parent="1" vertex="1" connectable="0">
          <mxGeometry x="660" y="610" width="120" height="120" as="geometry" />
        </mxCell>
        <mxCell id="QBqWffG0uu94AfR12DbI-50" value="" style="verticalLabelPosition=bottom;sketch=0;aspect=fixed;html=1;verticalAlign=top;strokeColor=none;align=center;outlineConnect=0;shape=mxgraph.citrix.database_server;" parent="QBqWffG0uu94AfR12DbI-69" vertex="1">
          <mxGeometry x="20" width="80" height="90" as="geometry" />
        </mxCell>
        <mxCell id="QBqWffG0uu94AfR12DbI-51" value="&lt;font style=&quot;font-size: 15px;&quot;&gt;db-postgresql&lt;/font&gt;" style="text;html=1;align=center;verticalAlign=middle;resizable=0;points=[];autosize=1;strokeColor=none;fillColor=none;" parent="QBqWffG0uu94AfR12DbI-69" vertex="1">
          <mxGeometry x="5" y="90" width="110" height="30" as="geometry" />
        </mxCell>
        <mxCell id="6M2gs1AQdJh16n6_lK8J-2" value="" style="group" parent="1" vertex="1" connectable="0">
          <mxGeometry x="760" y="334.5" width="90" height="119" as="geometry" />
        </mxCell>
        <mxCell id="QBqWffG0uu94AfR12DbI-21" value="" style="verticalLabelPosition=bottom;sketch=0;aspect=fixed;html=1;verticalAlign=top;strokeColor=none;align=center;outlineConnect=0;shape=mxgraph.citrix.database_server;movable=1;resizable=1;rotatable=1;deletable=1;editable=1;locked=0;connectable=1;" parent="6M2gs1AQdJh16n6_lK8J-2" vertex="1">
          <mxGeometry x="10" width="80" height="90" as="geometry" />
        </mxCell>
        <mxCell id="QBqWffG0uu94AfR12DbI-22" value="&lt;font style=&quot;font-size: 15px;&quot;&gt;db-redis&lt;/font&gt;" style="text;html=1;align=center;verticalAlign=middle;resizable=1;points=[];autosize=1;strokeColor=none;fillColor=none;movable=1;rotatable=1;deletable=1;editable=1;locked=0;connectable=1;" parent="6M2gs1AQdJh16n6_lK8J-2" vertex="1">
          <mxGeometry x="5" y="89" width="80" height="30" as="geometry" />
        </mxCell>
        <mxCell id="6M2gs1AQdJh16n6_lK8J-3" value="" style="group" parent="1" vertex="1" connectable="0">
          <mxGeometry x="1160" y="330" width="90" height="125" as="geometry" />
        </mxCell>
        <mxCell id="QBqWffG0uu94AfR12DbI-36" value="" style="verticalLabelPosition=bottom;sketch=0;aspect=fixed;html=1;verticalAlign=top;strokeColor=none;align=center;outlineConnect=0;shape=mxgraph.citrix.database_server;movable=1;resizable=1;rotatable=1;deletable=1;editable=1;locked=0;connectable=1;" parent="6M2gs1AQdJh16n6_lK8J-3" vertex="1">
          <mxGeometry x="5.004999999999882" width="80" height="90" as="geometry" />
        </mxCell>
        <mxCell id="QBqWffG0uu94AfR12DbI-37" value="&lt;font style=&quot;font-size: 15px;&quot;&gt;db-mysql&lt;/font&gt;" style="text;html=1;align=center;verticalAlign=middle;resizable=1;points=[];autosize=1;strokeColor=none;fillColor=none;movable=1;rotatable=1;deletable=1;editable=1;locked=0;connectable=1;fontSize=15;" parent="6M2gs1AQdJh16n6_lK8J-3" vertex="1">
          <mxGeometry x="5" y="95" width="80" height="30" as="geometry" />
        </mxCell>
        <mxCell id="QBqWffG0uu94AfR12DbI-48" value="&lt;font style=&quot;font-size: 15px;&quot;&gt;web-struts2&lt;/font&gt;" style="text;html=1;align=center;verticalAlign=middle;resizable=0;points=[];autosize=1;strokeColor=none;fillColor=none;" parent="1" vertex="1">
          <mxGeometry x="860" y="701" width="100" height="30" as="geometry" />
        </mxCell>
        <mxCell id="QBqWffG0uu94AfR12DbI-47" value="" style="verticalLabelPosition=bottom;sketch=0;aspect=fixed;html=1;verticalAlign=top;strokeColor=none;align=center;outlineConnect=0;shape=mxgraph.citrix.site;container=0;" parent="1" vertex="1">
          <mxGeometry x="856.5" y="600" width="107" height="101" as="geometry" />
        </mxCell>
        <mxCell id="QBqWffG0uu94AfR12DbI-33" value="" style="verticalLabelPosition=bottom;sketch=0;aspect=fixed;html=1;verticalAlign=top;strokeColor=none;align=center;outlineConnect=0;shape=mxgraph.citrix.site;movable=1;resizable=1;rotatable=1;deletable=1;editable=1;locked=0;connectable=1;" parent="1" vertex="1">
          <mxGeometry x="930.0037500000001" y="329.5" width="107" height="101" as="geometry" />
        </mxCell>
        <mxCell id="QBqWffG0uu94AfR12DbI-34" value="&lt;font style=&quot;font-size: 15px;&quot;&gt;web-phpmyadmin&lt;/font&gt;" style="text;html=1;align=center;verticalAlign=middle;resizable=1;points=[];autosize=1;strokeColor=none;fillColor=none;movable=1;rotatable=1;deletable=1;editable=1;locked=0;connectable=1;" parent="1" vertex="1">
          <mxGeometry x="913.5" y="430.5" width="140" height="30" as="geometry" />
        </mxCell>
        <mxCell id="6M2gs1AQdJh16n6_lK8J-4" value="&lt;font style=&quot;font-size: 15px;&quot;&gt;service-phpmyadmin&lt;/font&gt;" style="text;html=1;align=center;verticalAlign=middle;resizable=0;points=[];autosize=1;strokeColor=none;fillColor=none;" parent="1" vertex="1">
          <mxGeometry x="893.5" y="280" width="160" height="30" as="geometry" />
        </mxCell>
      </root>
    </mxGraphModel>
  </diagram>
</mxfile>
